<svg xmlns="http://www.w3.org/2000/svg" width="156" height="42">
    <g fill="none" fill-rule="evenodd">
        <path d="M0 17.568c0-2.4 1.932-4.346 4.314-4.346 2.383 0 4.315 1.946 4.315 4.346 0 2.401-1.932 4.347-4.315 4.347C1.932 21.915 0 19.97 0 17.568zm30.305 4.347c-2.383 0-4.314-1.946-4.314-4.347 0-2.4 1.931-4.346 4.314-4.346 2.382 0 4.315 1.946 4.315 4.346 0 2.401-1.933 4.347-4.315 4.347zm0-21.732c-9.53 0-17.257 7.784-17.257 17.385 0 9.603 7.726 17.386 17.257 17.386 9.532 0 17.258-7.783 17.258-17.386 0-9.6-7.726-17.385-17.258-17.385z" fill="#DA3743"/>
        <path d="M153.648 16.223c.273 0 .434-.123.434-.346 0-.203-.11-.336-.414-.336h-.283v.682h.263zm-.677-1.027h.767c.424 0 .788.173.788.66a.6.6 0 01-.373.56l.464.845h-.464l-.355-.712h-.413v.712h-.414v-2.065zm2.23 1.057c0-.955-.655-1.637-1.502-1.637-.849 0-1.495.682-1.495 1.637 0 .967.646 1.627 1.495 1.627.847 0 1.503-.66 1.503-1.627zm-3.401 0c0-1.19.858-2.003 1.899-2.003 1.049 0 1.907.813 1.907 2.003 0 1.19-.858 2.004-1.907 2.004-1.041 0-1.9-.814-1.9-2.004zm-12.665 8.133a.477.477 0 00.472-.472v-1.745a.475.475 0 00-.469-.472h-.075c-.212 0-.423-.212-.423-.426v-10.34c0-.236-.235-.472-.469-.472h-1.725c-.234 0-.468.236-.468.472v11.455l.006.298c0 .853.847 1.705 1.693 1.705l1.458-.003zM63.21 13.19c2.347 0 4.328 2.003 4.328 4.378 0 2.396-1.942 4.341-4.328 4.341-2.375 0-4.306-1.945-4.306-4.341 0-2.414 1.931-4.378 4.306-4.378zm0-2.757c-3.883 0-7.043 3.2-7.043 7.135 0 3.98 3.092 7.099 7.043 7.099 3.962 0 7.065-3.119 7.065-7.1 0-3.933-3.17-7.134-7.065-7.134zm56.202 11.126c-.127.365-.894 1.051-1.767 1.051-.916 0-1.427-.558-1.427-1.395 0-.88.617-1.416 1.746-1.416.788 0 1.448.3 1.448.3v1.46zm-1.15-7.317c-1.597 0-3.152.407-3.365.493-.213.064-.405.236-.32.601l.214 1.116c.042.3.234.536.553.429.576-.172 1.875-.365 2.77-.365 1.043 0 1.405.601 1.362 1.867 0 0-.894-.279-1.895-.279-2.492 0-3.92 1.352-3.92 3.111 0 2.125 1.364 3.39 3.323 3.39a4.294 4.294 0 003.089-1.244v.533c0 .258.213.472.469.472h.173a.315.315 0 00.06.004h.725a.475.475 0 00.469-.472v-5.343c0-2.704-.64-4.313-3.707-4.313zm-17.88 0c-1.886 0-2.801 1.019-3.167 1.43v-.744a.475.475 0 00-.469-.472h-1.114a.474.474 0 00-.469.472v8.97a.49.49 0 00.469.472h1.576c.469 0 .618-.108.618-.472v-5.665c.234-.687.852-1.545 2.13-1.545 1.192 0 1.703.794 1.703 2.081v5.129c0 .257.214.472.47.472h1.724a.49.49 0 00.469-.472v-5.129c0-2.403-.81-4.527-3.94-4.527zM76.93 22.16c-1.236 0-2.045-.558-2.045-.558V18.06c.213-.558.895-1.373 2.173-1.373 1.533 0 2.321 1.352 2.321 2.746 0 1.395-.83 2.726-2.45 2.726zm.49-7.918c-2.024 0-3.146 1.39-3.213 1.477v-.79a.475.475 0 00-.469-.473h-1.047a.475.475 0 00-.468.472v13.003a.49.49 0 00.468.473h1.726c.234 0 .468-.237.468-.473v-3.733c.447.172 1.385.408 2.364.408 2.94 0 4.878-2.275 4.878-5.172 0-3.004-2.024-5.192-4.707-5.192zm70.24 3.926c-.042-.966-.809-1.717-1.895-1.717-1.193 0-1.96.73-2.087 1.717h3.982zm-1.83-3.927c2.555 0 4.514 1.91 4.514 4.592 0 .15-.021.493-.042.644a.501.501 0 01-.469.45h-6.304c.021 1.223 1.022 2.296 2.45 2.296.979 0 1.66-.365 2.108-.73.234-.193.49-.214.639 0l.83 1.116c.17.193.192.43-.042.644a5.532 5.532 0 01-3.664 1.352c-2.939 0-4.984-2.36-4.984-5.193 0-2.789 2.045-5.17 4.963-5.17zm-16.67 7.919c-1.278 0-1.96-.816-2.173-1.374v-3.54s.81-.558 2.045-.558c1.619 0 2.45 1.33 2.45 2.725s-.789 2.747-2.322 2.747zm.234-7.918c-.98 0-1.96.236-2.407.429v-3.777a.49.49 0 00-.469-.472h-1.725c-.234 0-.468.236-.468.472v13.004a.49.49 0 00.468.472h.746c.014 0 .028 0 .042-.004h.2a.475.475 0 00.471-.472v-.733l.01-.036s1.13 1.48 3.28 1.48c2.685 0 4.623-2.36 4.623-5.192 0-2.897-1.853-5.171-4.771-5.171zm-15.07-3.82h-10.018a.406.406 0 00-.404.408v1.76c0 .214.17.407.404.407h3.614v10.965a.42.42 0 00.405.408h1.98a.42.42 0 00.406-.408V12.997h3.613a.406.406 0 00.405-.408V10.83a.406.406 0 00-.405-.408zm-23.848 7.746c-.043-.966-.81-1.717-1.896-1.717-1.192 0-1.96.73-2.087 1.717h3.983zm-1.832-3.927c2.556 0 4.515 1.91 4.515 4.592 0 .15-.02.493-.042.644a.502.502 0 01-.469.45h-6.304c.021 1.223 1.022 2.296 2.45 2.296.98 0 1.66-.365 2.108-.73.234-.193.49-.214.639 0l.83 1.116c.171.193.192.43-.042.644a5.532 5.532 0 01-3.664 1.352c-2.939 0-4.983-2.36-4.983-5.193 0-2.789 2.044-5.17 4.962-5.17z" fill="#141A26"/>
    </g>
</svg>